<svg width="478" height="140" viewBox="0 0 478 140" fill="none" xmlns="http://www.w3.org/2000/svg">
<path d="M84.144 44.921C90.072 44.921 93.036 46.806 93.036 50.576C93.036 52.344 92.633 53.852 91.827 55.1C91.021 56.322 89.578 57.284 87.498 57.986C85.418 58.662 82.532 59 78.84 59H61.29C61.498 53.956 61.602 49.237 61.602 44.843C61.602 40.449 61.498 35.73 61.29 30.686H70.455V30.725H78.762C81.986 30.725 84.521 30.998 86.367 31.544C88.239 32.064 89.552 32.831 90.306 33.845C91.086 34.859 91.476 36.146 91.476 37.706C91.476 39.292 90.917 40.709 89.799 41.957C88.707 43.179 86.822 44.167 84.144 44.921ZM70.455 37.823V41.45H77.943C79.555 41.45 80.673 41.307 81.297 41.021C81.947 40.735 82.272 40.215 82.272 39.461C82.272 38.863 81.934 38.447 81.258 38.213C80.608 37.953 79.503 37.823 77.943 37.823H70.455ZM77.943 51.863C79.295 51.863 80.322 51.811 81.024 51.707C81.752 51.577 82.272 51.369 82.584 51.083C82.896 50.771 83.052 50.355 83.052 49.835C83.052 49.159 82.675 48.678 81.921 48.392C81.193 48.08 79.867 47.924 77.943 47.924H70.455V51.863H77.943ZM119.227 30.647H128.899V46.169C128.847 49.991 127.534 53.15 124.96 55.646C122.412 58.142 118.109 59.39 112.051 59.39C105.915 59.39 101.716 58.207 99.4536 55.841C97.1916 53.449 96.0866 50.316 96.1386 46.442V30.647H105.811V45.818C105.811 46.962 105.889 47.898 106.045 48.626C106.227 49.328 106.773 49.991 107.683 50.615C108.619 51.239 110.114 51.551 112.168 51.551C114.404 51.551 116.042 51.239 117.082 50.615C118.122 49.965 118.733 49.25 118.915 48.47C119.123 47.69 119.227 46.689 119.227 45.467V30.647ZM164.737 30.725C164.555 35.119 164.464 39.825 164.464 44.843C164.464 49.887 164.555 54.606 164.737 59H150.775L141.337 37.706L142.039 59H132.016C132.224 53.956 132.328 49.237 132.328 44.843C132.328 40.475 132.224 35.769 132.016 30.725H146.368L155.845 52.604L155.182 30.725H164.737ZM180.334 30.257C185.222 30.257 189.083 30.855 191.917 32.051C194.751 33.221 196.727 34.859 197.845 36.965C198.989 39.045 199.561 41.606 199.561 44.648C199.561 47.534 198.911 50.056 197.611 52.214C196.311 54.372 194.361 56.049 191.761 57.245C189.161 58.415 185.963 59 182.167 59C179.853 59 177.5 59 175.108 59C172.716 59 170.298 58.987 167.854 58.961C168.062 53.839 168.166 49.068 168.166 44.648C168.166 40.176 168.062 35.509 167.854 30.647C170.948 30.387 175.108 30.257 180.334 30.257ZM183.259 51.239C185.677 51.239 187.289 50.654 188.095 49.484C188.901 48.314 189.304 46.702 189.304 44.648C189.304 42.672 188.875 41.073 188.017 39.851C187.185 38.629 185.599 38.018 183.259 38.018C180.737 38.018 178.852 38.096 177.604 38.252V51.239H183.259ZM212.181 51.122C219.721 51.07 225.961 50.94 230.901 50.732C230.563 52.058 230.355 53.332 230.277 54.554C230.199 55.776 230.16 57.258 230.16 59H202.665C202.873 53.956 202.977 49.237 202.977 44.843C202.977 40.449 202.873 35.73 202.665 30.686H212.181V51.122ZM243.214 51.863C253.094 51.811 260.257 51.668 264.703 51.434C264.521 52.5 264.404 53.605 264.352 54.749C264.326 55.867 264.313 57.284 264.313 59H234.01C234.218 53.956 234.322 49.237 234.322 44.843C234.322 40.449 234.218 35.73 234.01 30.686H264.313V37.745H243.214V41.489C244.462 41.515 246.308 41.528 248.752 41.528C252.886 41.528 257.163 41.45 261.583 41.294V48.002C257.163 47.846 252.886 47.768 248.752 47.768C246.308 47.768 244.462 47.781 243.214 47.807V51.863Z" fill="#65C9DF"/>
<path d="M159.868 75.921C165.796 75.921 168.76 77.806 168.76 81.576C168.76 83.344 168.357 84.852 167.551 86.1C166.745 87.322 165.302 88.284 163.222 88.986C161.142 89.662 158.256 90 154.564 90H137.014C137.222 84.956 137.326 80.237 137.326 75.843C137.326 71.449 137.222 66.73 137.014 61.686H146.179V61.725H154.486C157.71 61.725 160.245 61.998 162.091 62.544C163.963 63.064 165.276 63.831 166.03 64.845C166.81 65.859 167.2 67.146 167.2 68.706C167.2 70.292 166.641 71.709 165.523 72.957C164.431 74.179 162.546 75.167 159.868 75.921ZM146.179 68.823V72.45H153.667C155.279 72.45 156.397 72.307 157.021 72.021C157.671 71.735 157.996 71.215 157.996 70.461C157.996 69.863 157.658 69.447 156.982 69.213C156.332 68.953 155.227 68.823 153.667 68.823H146.179ZM153.667 82.863C155.019 82.863 156.046 82.811 156.748 82.707C157.476 82.577 157.996 82.369 158.308 82.083C158.62 81.771 158.776 81.355 158.776 80.835C158.776 80.159 158.399 79.678 157.645 79.392C156.917 79.08 155.591 78.924 153.667 78.924H146.179V82.863H153.667ZM194.522 69.447C191.428 69.291 189.14 69.2 187.658 69.174V82.512C189.166 82.486 191.454 82.395 194.522 82.239V90H171.863V82.239C174.853 82.395 177.128 82.486 178.688 82.512V69.174C177.128 69.2 174.853 69.291 171.863 69.447V61.686H194.522V69.447ZM231.148 69.876C227.066 69.746 223.101 69.668 219.253 69.642V90H209.503V69.642C205.629 69.668 201.677 69.746 197.647 69.876V61.686H231.148V69.876ZM243.49 82.863C253.37 82.811 260.533 82.668 264.979 82.434C264.797 83.5 264.68 84.605 264.628 85.749C264.602 86.867 264.589 88.284 264.589 90H234.286C234.494 84.956 234.598 80.237 234.598 75.843C234.598 71.449 234.494 66.73 234.286 61.686H264.589V68.745H243.49V72.489C244.738 72.515 246.584 72.528 249.028 72.528C253.162 72.528 257.439 72.45 261.859 72.294V79.002C257.439 78.846 253.162 78.768 249.028 78.768C246.584 78.768 244.738 78.781 243.49 78.807V82.863Z" fill="black"/>
</svg>
