<svg width="70" height="65" viewBox="0 0 70 65" fill="#0000"  xmlns="http://www.w3.org/2000/svg">
<path d="M18.3333 48.5833C19.5989 48.5833 20.625 47.5946 20.625 46.375C20.625 45.1553 19.5989 44.1666 18.3333 44.1666C17.0676 44.1666 16.0416 45.1553 16.0416 46.375C16.0416 47.5946 17.0676 48.5833 18.3333 48.5833Z" stroke="#000000" stroke-width="4" stroke-linecap="round" stroke-linejoin="round"/>
<path d="M43.5417 48.5833C44.8073 48.5833 45.8333 47.5946 45.8333 46.375C45.8333 45.1553 44.8073 44.1666 43.5417 44.1666C42.276 44.1666 41.25 45.1553 41.25 46.375C41.25 47.5946 42.276 48.5833 43.5417 48.5833Z" stroke="#000000" stroke-width="4" stroke-linecap="round" stroke-linejoin="round"/>
<path d="M4.69788 4.5271H9.28121L15.377 31.9546C15.6007 32.9591 16.1807 33.857 17.0172 34.4939C17.8538 35.1307 18.8945 35.4666 19.9604 35.4438H42.3729C43.416 35.4421 44.4273 35.0977 45.2398 34.4673C46.0523 33.8369 46.6174 32.9584 46.8416 31.9767L50.6229 15.5688H11.7333" stroke="#000000" stroke-width="4" stroke-linecap="round" stroke-linejoin="round"/>
</svg>
